<svg id="Layer_1" data-name="Layer 1" xmlns="http://www.w3.org/2000/svg" viewBox="0 0 300 300"><defs><style>.cls-1{fill:#969faa;}</style></defs><title>ic_other</title><path class="cls-1" d="M213.73,29Q187.08,9.77,146.79,9.76q-30.66,0-51.69,13.52Q61.76,44.47,59.62,95.19h51.52q0-14.76,8.62-28.48T149,53q21,0,28.89,11.12a41.56,41.56,0,0,1,7.92,24.65c0,7.84-3.94,15-8.67,21.54a45.22,45.22,0,0,1-10.31,10.5s-27.94,17.92-40.2,32.31c-7.11,8.35-7.75,20.85-8.38,38.8,0,1.27.45,3.91,4.91,3.91h40.07c4,0,4.8-3,4.86-4.25a47.17,47.17,0,0,1,2.2-13.64c2.26-7.12,8.38-13.35,15.25-18.69l14.19-9.79c12.79-10,23-18.15,27.51-24.56,7.71-10.56,13.12-23.55,13.12-39Q240.38,48.21,213.73,29ZM146,226.72c-17.75-.53-32.4,11.75-33,31s13.38,32,31.13,32.49c18.54.55,32.8-11.33,33.35-30.58S164.5,227.27,146,226.72Z"/></svg>