<svg id="Layer_1" data-name="Layer 1" xmlns="http://www.w3.org/2000/svg" viewBox="0 0 300 300"><defs><style>.cls-1{fill:#969faa;}</style></defs><title>ic_people_round</title><path class="cls-1" d="M150,282.52c-77.2,0-140-62.8-140-140s62.8-140,140-140,140,62.81,140,140S227.2,282.52,150,282.52Zm0-270c-71.68,0-130,58.32-130,130s58.32,130,130,130,130-58.32,130-130S221.68,12.52,150,12.52Z"/><path class="cls-1" d="M241.76,96.34l-.46-.46a11.24,11.24,0,0,0-15.88,0l-17.1,17.28a2.36,2.36,0,0,1-3.28.07l-24-22.13a12.5,12.5,0,0,0-8.53-3.33H136.87a3.24,3.24,0,0,0-2.25.9l-30.23,28.69c-4.43,4.44-4.73,11.58-.67,15.93a11.16,11.16,0,0,0,8.24,3.6H112a11.18,11.18,0,0,0,8.19-3.61l21.35-22.59h7.64L99.38,166.38H68.66A13.38,13.38,0,0,0,55,178.78a13,13,0,0,0,3.58,9.71,13.13,13.13,0,0,0,9.5,4.09H114a3.29,3.29,0,0,0,2.39-1l23.49-25.08,19.75,20.66-6,38.11a13.27,13.27,0,0,0,7.2,15.29,13.41,13.41,0,0,0,5.45,1.18A13.09,13.09,0,0,0,179,231.45l10.18-54.65a3.29,3.29,0,0,0-.9-2.92l-27.19-27.15,21.6-21.57,15.06,15.05a11.37,11.37,0,0,0,15.73,0L241.76,112a11,11,0,0,0,0-15.62Z"/><path class="cls-1" d="M205.64,97.6A19.65,19.65,0,1,0,186,78,19.67,19.67,0,0,0,205.64,97.6Z"/></svg>