<svg id="Layer_1" data-name="Layer 1" xmlns="http://www.w3.org/2000/svg" viewBox="0 0 300 300"><defs><style>.cls-1{fill:#969faa;}</style></defs><title>ic_chainsaw</title><path class="cls-1" d="M242.73,18.74l-77.6,77.59L204.3,135.5l77.59-77.59a27.69,27.69,0,1,0-39.16-39.17Z"/><path class="cls-1" d="M42,287.17a7.5,7.5,0,0,0,10.61,0l47-47-10.9-10.91-41.4,41.4L27.55,250.89l15.34-24.68a4,4,0,0,0,2.63,1.44l8.4,1a4,4,0,0,0,3.28-1.14l14.87-14.86L59.29,199.84l-.84-.85-.85-.84a57.26,57.26,0,0,1-8.59-11L11.13,248.09a7.49,7.49,0,0,0,1.07,9.26Z"/><path class="cls-1" d="M53.68,179.64A49.12,49.12,0,0,0,63,192.58l.1.11,14.47,14.47,27.56,27.56,3.14,3.14a9,9,0,0,0,12.71,0L202,156.8a9,9,0,0,0,0-12.71L198.84,141l-39.16-39.16-2.86-2.87A49.35,49.35,0,0,0,137.7,87c-.65-.22-.08-11.8,0-13.13.57-9.49-7.48-15.14-13.5-21.16L111.74,40.3a9.62,9.62,0,0,0-14.66,1.42A9.71,9.71,0,0,0,98.41,54l20.13,20.14.06,10.46A49.3,49.3,0,0,0,86.9,98.92L64.15,121.68a9.65,9.65,0,0,0-10.44,2L43.19,134.24a9.62,9.62,0,0,0,0,13.49,7.67,7.67,0,0,0,.86.76,7.67,7.67,0,0,0,.76.86l4,4A49.49,49.49,0,0,0,53.68,179.64Zm88.08,15.22L123.21,213.4a7.71,7.71,0,0,1-10.91-10.9L130.85,184a7.71,7.71,0,1,1,10.91,10.91ZM88.84,179l18.55-18.55a7.71,7.71,0,0,1,10.91,10.9L99.75,189.94A7.71,7.71,0,1,1,88.84,179Z"/></svg>