<svg id="Layer_1" data-name="Layer 1" xmlns="http://www.w3.org/2000/svg" viewBox="0 0 300 300"><defs><style>.cls-1{fill:#969faa;}</style></defs><title>ic_chainsaw_round</title><path class="cls-1" d="M208,68l-48.49,48.5,24.48,24.48,48.49-48.5A17.31,17.31,0,1,0,208,68Z"/><path class="cls-1" d="M82.51,235.73a4.7,4.7,0,0,0,6.63,0l29.37-29.37-6.81-6.82L85.82,225.41,73.47,213.06l9.59-15.43a2.43,2.43,0,0,0,1.64.9l5.25.61a2.51,2.51,0,0,0,2-.71l9.29-9.3-8-8-.52-.53-.53-.53a36,36,0,0,1-5.37-6.87L63.21,211.31a4.69,4.69,0,0,0,.66,5.79Z"/><path class="cls-1" d="M89.8,168.52a30.9,30.9,0,0,0,5.79,8.1l.07.06,9,9L121.92,203l2,2a5.6,5.6,0,0,0,7.94,0l50.66-50.66a5.62,5.62,0,0,0,0-7.94l-2-2-24.48-24.47-1.79-1.79a30.72,30.72,0,0,0-11.95-7.43c-.41-.14-.05-7.37,0-8.21.35-5.93-4.68-9.46-8.44-13.22l-7.78-7.78a6,6,0,0,0-9.16.89,6.07,6.07,0,0,0,.82,7.64l12.59,12.59q0,3.27,0,6.54a30.71,30.71,0,0,0-19.81,9L96.34,132.3a6.08,6.08,0,0,0-2.3-.45,5.94,5.94,0,0,0-4.22,1.72l-6.58,6.58a6,6,0,0,0,0,8.43,6.17,6.17,0,0,0,.54.48c.15.18.3.36.47.53l2.48,2.48A31,31,0,0,0,89.8,168.52ZM144.85,178l-11.6,11.6a4.82,4.82,0,0,1-6.81-6.82L138,171.22a4.82,4.82,0,1,1,6.82,6.81Zm-33.08-9.88,11.6-11.6a4.82,4.82,0,0,1,6.82,6.82L118.59,175a4.8,4.8,0,0,1-6.82,0A4.82,4.82,0,0,1,111.77,168.15Z"/><path class="cls-1" d="M150,290C72.8,290,10,227.2,10,150S72.8,10,150,10,290,72.8,290,150,227.2,290,150,290Zm0-270C78.32,20,20,78.32,20,150S78.32,280,150,280s130-58.32,130-130S221.68,20,150,20Z"/></svg>