<svg id="Layer_1" data-name="Layer 1" xmlns="http://www.w3.org/2000/svg" viewBox="0 0 300 300"><defs><style>.cls-1{fill:#969faa;}</style></defs><title>ic_gun</title><path class="cls-1" d="M12,253.84l25.81,30.55s9.11,12.89,15.65,3.23S99.3,198.4,99.3,198.4s3.93-6.49,6.69,5.11,25.42,67.73,25.42,67.73,3.42,4.73,7.53,1.24,20.61-17.36,20.61-17.36,5.56-1.76-.2-12.75-26.92-61.18-26.92-61.18-3.09-6.42,1.38-10.19,10.24-8.07,10.24-8.07,2.57-5.3,9.65.29,27.35,26.12,58.58,33.84a323.1,323.1,0,0,0,58.56,8.79s6.69.24,7.63-11.18.41-27.37.41-27.37.64-7.62-6.06-7.84-18,2.31-32.33-2.1-46.63-28-46.63-28-5.18-4.07-.37-8.14L232,88.74s5.77-4.31,2.29-8.43L229,74.14l61.12-51.61L278.54,8.79,217.42,60.38l-5-4.53s-4.46-3.89-8.24-.7S161,91,161,91s-11.12-11.75-19.35-4.8-58.35,49.29-58.35,49.29-2.18,3-.46,9.2,4.84,10.6,1.75,13.21L65.32,174.14s-4.51,4.39-3.95,12.75-4,17.48-12.95,25-34.63,28.65-34.63,28.65S6.25,247,12,253.84Z"/><path class="cls-1" d="M243.39,43.77s-20.46-24.25-24-28.49-14-8-15.3,6.93c-1.43,17.18-3,40.31-3,40.31l17.85.58s-.87-9.47-2.16-14.22c-1.62-5.92,1.19-8.82,4.39-5l9.22,10.85Z"/><path class="cls-1" d="M132.93,189.23l10.2-8.61c4.53-3.82,8.92-12.41,5.14-23.78s11.08,1.63,11.08,1.63,7.79,17.86-5.49,29.06-19.24,15.77-19.24,15.77Z"/></svg>