<svg id="Layer_1" data-name="Layer 1" xmlns="http://www.w3.org/2000/svg" viewBox="0 0 300 300"><defs><style>.cls-1{fill:#969faa;}</style></defs><title>ic_people</title><path class="cls-1" d="M285.23,70.93l-.68-.69a16.57,16.57,0,0,0-23.41,0l-25.2,25.46a3.47,3.47,0,0,1-4.83.11L195.78,63.22a18.47,18.47,0,0,0-12.57-4.91H130.65a4.82,4.82,0,0,0-3.32,1.32L82.79,101.92c-6.53,6.53-7,17.06-1,23.46a16.46,16.46,0,0,0,12.15,5.32H94a16.6,16.6,0,0,0,12.08-5.32l31.45-33.29h11.26l-73.41,82H30.12c-10.73,0-19.56,8-20.09,18.28a19.13,19.13,0,0,0,5.27,14.32,19.39,19.39,0,0,0,14,6H96.87a4.81,4.81,0,0,0,3.52-1.53l34.62-37,29.11,30.44-8.79,56.17c-2.21,9.3,2.25,18.78,10.62,22.52a19.53,19.53,0,0,0,8,1.74,19.28,19.28,0,0,0,18.8-15.1l15-80.54a4.84,4.84,0,0,0-1.34-4.3l-40.07-40,31.84-31.79,22.19,22.19a16.8,16.8,0,0,0,23.19,0L285.23,94a16.27,16.27,0,0,0,0-23Z"/><path class="cls-1" d="M232,72.78a29,29,0,1,0-29-28.95A29,29,0,0,0,232,72.78Z"/></svg>