<svg id="Layer_1" data-name="Layer 1" xmlns="http://www.w3.org/2000/svg" viewBox="0 0 300 300"><defs><style>.cls-1{fill:#969faa;}</style></defs><title>ic_radar</title><path class="cls-1" d="M150,167a17,17,0,1,1,17-17A17,17,0,0,1,150,167Zm0-22.61a5.65,5.65,0,1,0,5.65,5.65A5.66,5.66,0,0,0,150,144.35Z"/><path class="cls-1" d="M150,212.17a62.17,62.17,0,0,1,0-124.34,5.65,5.65,0,1,1,0,11.3A50.87,50.87,0,1,0,186,114a5.65,5.65,0,1,1,8-8,62.17,62.17,0,0,1-44,106.13Z"/><path class="cls-1" d="M150,246.09a96.09,96.09,0,0,1,0-192.18,5.66,5.66,0,0,1,0,11.31A84.74,84.74,0,1,0,210,90a5.65,5.65,0,1,1,8-8,96.1,96.1,0,0,1-67.95,164Z"/><path class="cls-1" d="M150,280C78.32,280,20,221.68,20,150S78.32,20,150,20a5.65,5.65,0,0,1,5.65,5.65V150a5.65,5.65,0,0,1-11.3,0V31.44a118.69,118.69,0,1,0,89.58,34.63,5.66,5.66,0,1,1,8-8A129.21,129.21,0,0,1,280,150C280,221.68,221.68,280,150,280Z"/></svg>