<svg id="Layer_1" data-name="Layer 1" xmlns="http://www.w3.org/2000/svg" viewBox="0 0 300 300"><defs><style>.cls-1{fill:#969faa;}</style></defs><title>ic_truck_round</title><path class="cls-1" d="M150,290C72.8,290,10,227.2,10,150S72.8,10,150,10,290,72.8,290,150,227.2,290,150,290Zm0-270C78.32,20,20,78.32,20,150S78.32,280,150,280s130-58.32,130-130S221.68,20,150,20Z"/><path class="cls-1" d="M208.5,176.4a15.3,15.3,0,1,0,15.3,15.3A15.31,15.31,0,0,0,208.5,176.4Zm0,19.8a4.5,4.5,0,1,1,4.5-4.5A4.51,4.51,0,0,1,208.5,196.2Z"/><path class="cls-1" d="M207,112.8H180.6a3.6,3.6,0,0,0-3.6,3.6v70.2a3.6,3.6,0,0,0,3.6,3.6h3.82a3.59,3.59,0,0,0,3.59-3c1.41-10.83,10.05-17.54,20.49-17.54s19.08,6.71,20.49,17.54a3.6,3.6,0,0,0,3.6,3h3.81a3.6,3.6,0,0,0,3.6-3.6V151.5a3.61,3.61,0,0,0-.84-2.31l-29.36-35.1A3.61,3.61,0,0,0,207,112.8ZM184.2,141.6v-18a3.6,3.6,0,0,1,3.6-3.6h15.86a3.56,3.56,0,0,1,2.76,1.3l15,18a3.59,3.59,0,0,1-2.76,5.9H187.8A3.6,3.6,0,0,1,184.2,141.6Z"/><path class="cls-1" d="M63.6,190.2h9.22a3.59,3.59,0,0,0,3.59-3c1.41-10.82,10-17.54,20.49-17.54s19.08,6.72,20.49,17.54a3.6,3.6,0,0,0,3.6,3H166.2a3.6,3.6,0,0,0,3.6-3.6v-90a3.6,3.6,0,0,0-3.6-3.6H63.6A3.6,3.6,0,0,0,60,96.6v90A3.6,3.6,0,0,0,63.6,190.2Z"/><path class="cls-1" d="M96.9,176.4a15.3,15.3,0,1,0,15.3,15.3A15.31,15.31,0,0,0,96.9,176.4Zm0,19.8a4.5,4.5,0,1,1,4.5-4.5A4.51,4.51,0,0,1,96.9,196.2Z"/></svg>