<svg id="Layer_1" data-name="Layer 1" xmlns="http://www.w3.org/2000/svg" viewBox="0 0 300 300"><defs><style>.cls-1{fill:#969faa;}</style></defs><title>ic_truck</title><path class="cls-1" d="M241.33,191.21a23.89,23.89,0,1,0,23.88,23.89A23.91,23.91,0,0,0,241.33,191.21Zm0,30.91a7,7,0,1,1,7-7A7,7,0,0,1,241.33,222.12Z"/><path class="cls-1" d="M239,91.93H197.77a5.61,5.61,0,0,0-5.62,5.62V207.14a5.62,5.62,0,0,0,5.62,5.62h6a5.61,5.61,0,0,0,5.61-4.77c2.2-16.9,15.68-27.38,32-27.38s29.78,10.48,32,27.38a5.61,5.61,0,0,0,5.61,4.77h5.95a5.62,5.62,0,0,0,5.62-5.62v-54.8a5.56,5.56,0,0,0-1.31-3.6l-45.84-54.8A5.65,5.65,0,0,0,239,91.93Zm-35.65,45v-28.1a5.61,5.61,0,0,1,5.62-5.62h24.76a5.62,5.62,0,0,1,4.31,2l23.42,28.1a5.62,5.62,0,0,1-4.32,9.22H209A5.62,5.62,0,0,1,203.39,136.89Z"/><path class="cls-1" d="M15.12,212.76H29.51A5.61,5.61,0,0,0,35.12,208c2.2-16.9,15.68-27.38,32-27.38S96.89,191.1,99.1,208a5.6,5.6,0,0,0,5.61,4.76h70.58a5.62,5.62,0,0,0,5.62-5.62V66.64A5.62,5.62,0,0,0,175.29,61H15.12A5.62,5.62,0,0,0,9.5,66.64v140.5A5.62,5.62,0,0,0,15.12,212.76Z"/><path class="cls-1" d="M67.11,191.21A23.89,23.89,0,1,0,91,215.1,23.92,23.92,0,0,0,67.11,191.21Zm0,30.91a7,7,0,1,1,7-7A7,7,0,0,1,67.11,222.12Z"/></svg>